<svg width="16" height="20" viewBox="0 0 16 20" fill="none" xmlns="http://www.w3.org/2000/svg">
<path d="M4.03886 10.07C4.17937 10.0175 4.33047 9.99026 4.48323 9.98978C4.636 9.9893 4.78732 10.0156 4.92826 10.0672C5.0692 10.1188 5.19689 10.1945 5.30379 10.29C5.41069 10.3855 5.49463 10.4988 5.55064 10.6231C5.60665 10.7475 5.6336 10.8804 5.62989 11.014C5.62618 11.1477 5.59189 11.2793 5.52905 11.4011C5.46621 11.523 5.37609 11.6325 5.26402 11.7234C5.15195 11.8142 5.02021 11.8845 4.87657 11.93C4.11262 12.1934 3.45695 12.6519 2.99486 13.2458C2.53278 13.8397 2.28568 14.5415 2.28571 15.26V17C2.28571 17.2652 2.40612 17.5196 2.62045 17.7071C2.83478 17.8946 3.12547 18 3.42857 18H12.5714C12.8745 18 13.1652 17.8946 13.3796 17.7071C13.5939 17.5196 13.7143 17.2652 13.7143 17V15.353C13.7144 14.6115 13.457 13.8874 12.9761 13.2768C12.4953 12.6662 11.8137 12.1979 11.0217 11.934C10.8772 11.8901 10.7442 11.8213 10.6306 11.7316C10.5171 11.6419 10.4253 11.5332 10.3606 11.4119C10.296 11.2905 10.2598 11.1591 10.2543 11.0253C10.2488 10.8916 10.274 10.7582 10.3285 10.6331C10.383 10.508 10.4656 10.3938 10.5715 10.2972C10.6774 10.2006 10.8043 10.1235 10.9449 10.0706C11.0854 10.0177 11.2366 9.99008 11.3896 9.98929C11.5426 9.98849 11.6942 10.0146 11.8354 10.066C13.0601 10.4742 14.1142 11.1983 14.8579 12.1425C15.6016 13.0867 15.9999 14.2063 16 15.353V17C16 17.7956 15.6388 18.5587 14.9958 19.1213C14.3528 19.6839 13.4807 20 12.5714 20H3.42857C2.51926 20 1.64719 19.6839 1.00421 19.1213C0.361223 18.5587 0 17.7956 0 17L0 15.26C0.000157258 14.1402 0.385459 13.0463 1.10578 12.1206C1.82611 11.195 2.84812 10.4805 4.03886 10.07ZM8 0C9.21242 0 10.3752 0.421427 11.2325 1.17157C12.0898 1.92172 12.5714 2.93913 12.5714 4V6C12.5714 7.06087 12.0898 8.07828 11.2325 8.82843C10.3752 9.57857 9.21242 10 8 10C6.78758 10 5.62482 9.57857 4.76751 8.82843C3.9102 8.07828 3.42857 7.06087 3.42857 6V4C3.42857 2.93913 3.9102 1.92172 4.76751 1.17157C5.62482 0.421427 6.78758 0 8 0ZM8 2C7.39379 2 6.81241 2.21071 6.38376 2.58579C5.9551 2.96086 5.71429 3.46957 5.71429 4V6C5.71429 6.53043 5.9551 7.03914 6.38376 7.41421C6.81241 7.78929 7.39379 8 8 8C8.60621 8 9.18759 7.78929 9.61624 7.41421C10.0449 7.03914 10.2857 6.53043 10.2857 6V4C10.2857 3.46957 10.0449 2.96086 9.61624 2.58579C9.18759 2.21071 8.60621 2 8 2Z" fill="#181725"/>
</svg>
