<svg width="19" height="19" viewBox="0 0 19 19" fill="none" xmlns="http://www.w3.org/2000/svg">
<path d="M6.5 18.5C5.4 18.5 4.45833 18.1083 3.675 17.325C2.89167 16.5417 2.5 15.6 2.5 14.5V6.325C1.91667 6.10833 1.43767 5.746 1.063 5.238C0.688333 4.73 0.500667 4.15067 0.5 3.5C0.5 2.66667 0.791667 1.95833 1.375 1.375C1.95833 0.791667 2.66667 0.5 3.5 0.5C4.33333 0.5 5.04167 0.791667 5.625 1.375C6.20833 1.95833 6.5 2.66667 6.5 3.5C6.5 4.15 6.31267 4.72933 5.938 5.238C5.56333 5.74667 5.084 6.109 4.5 6.325V14.5C4.5 15.05 4.696 15.521 5.088 15.913C5.48 16.305 5.95067 16.5007 6.5 16.5C7.04933 16.4993 7.52033 16.3037 7.913 15.913C8.30567 15.5223 8.50133 15.0513 8.5 14.5V4.5C8.5 3.4 8.89167 2.45833 9.675 1.675C10.4583 0.891667 11.4 0.5 12.5 0.5C13.6 0.5 14.5417 0.891667 15.325 1.675C16.1083 2.45833 16.5 3.4 16.5 4.5V12.675C17.0833 12.8917 17.5627 13.2543 17.938 13.763C18.3133 14.2717 18.5007 14.8507 18.5 15.5C18.5 16.3333 18.2083 17.0417 17.625 17.625C17.0417 18.2083 16.3333 18.5 15.5 18.5C14.6667 18.5 13.9583 18.2083 13.375 17.625C12.7917 17.0417 12.5 16.3333 12.5 15.5C12.5 14.85 12.6877 14.2667 13.063 13.75C13.4383 13.2333 13.9173 12.875 14.5 12.675V4.5C14.5 3.95 14.3043 3.47933 13.913 3.088C13.5217 2.69667 13.0507 2.50067 12.5 2.5C11.9493 2.49933 11.4787 2.69533 11.088 3.088C10.6973 3.48067 10.5013 3.95133 10.5 4.5V14.5C10.5 15.6 10.1083 16.5417 9.325 17.325C8.54167 18.1083 7.6 18.5 6.5 18.5Z" fill="#2AA64C"/>
</svg>
