<svg width="23" height="20" viewBox="0 0 23 20" fill="none" xmlns="http://www.w3.org/2000/svg">
<path d="M3.62603 8.98957L11.5185 16.9727L19.411 8.98957C20.1087 8.28376 20.5008 7.32648 20.5008 6.32831C20.5008 5.33015 20.1087 4.37286 19.411 3.66705C19.0654 3.31757 18.6553 3.04035 18.2038 2.85121C17.7524 2.66207 17.2686 2.56473 16.7799 2.56473C15.7931 2.56473 14.8467 2.96125 14.1489 3.66705L11.5185 6.32769L8.88808 3.66831C8.18852 2.97197 7.24525 2.58345 6.26377 2.58737C5.28228 2.5913 4.34208 2.98735 3.64798 3.68926C2.95388 4.39118 2.5621 5.34208 2.55799 6.33485C2.55388 7.32761 2.93776 8.2818 3.62603 8.98957ZM10.6417 1.89205L11.5185 2.77892L12.3953 1.89205C12.9702 1.30544 13.654 0.839465 14.4074 0.520873C15.1608 0.20228 15.969 0.0373449 16.7856 0.0355362C17.6021 0.0337275 18.411 0.195081 19.1658 0.510333C19.9206 0.825585 20.6064 1.28853 21.1838 1.87258C21.7612 2.45663 22.2189 3.1503 22.5306 3.91375C22.8423 4.6772 23.0018 5.49539 23 6.32137C22.9982 7.14734 22.8351 7.96483 22.5202 8.72689C22.2052 9.48895 21.7445 10.1806 21.1646 10.7621L12.3965 19.6321C12.2814 19.7487 12.1446 19.8413 11.994 19.9044C11.8435 19.9675 11.6821 20 11.5191 20C11.3561 20 11.1948 19.9675 11.0442 19.9044C10.8936 19.8413 10.7569 19.7487 10.6417 19.6321L1.87242 10.7633C1.28459 10.1837 0.816398 9.49179 0.494997 8.72772C0.173596 7.96365 0.00538697 7.14264 0.000127286 6.3123C-0.0051324 5.48196 0.152662 4.65883 0.464357 3.89066C0.776052 3.12249 1.23544 2.42456 1.81588 1.83737C2.39632 1.25018 3.08625 0.785415 3.84565 0.470029C4.60506 0.154644 5.41881 -0.00507956 6.23972 0.000123127C7.06063 0.00532581 7.87234 0.175351 8.62778 0.500337C9.38321 0.825323 10.0673 1.2988 10.6404 1.8933L10.6417 1.89205Z" fill="#2AA64C"/>
</svg>
