<svg width="42" height="48" viewBox="0 0 42 48" fill="none" xmlns="http://www.w3.org/2000/svg">
<path d="M1.28176 6.34401C0 8.82942 0 12.083 0 18.5902V22.9058C0 29.4129 0 32.6665 1.28176 35.1519C2.40923 37.3382 4.20829 39.1156 6.42107 40.2296C7.94121 40.9948 9.74525 41.2976 12.3883 41.4175C12.6556 41.6846 12.9464 41.9719 13.2621 42.2838L15.4332 44.4289C17.4292 46.4009 18.4271 47.3869 19.5779 47.7563C20.5902 48.0812 21.6805 48.0812 22.6928 47.7563C23.8436 47.3869 24.8415 46.4009 26.8375 44.4289L29.0086 42.2838C29.3298 41.9665 29.6251 41.6747 29.8962 41.4037C32.3853 41.275 34.114 40.967 35.5789 40.2296C37.7917 39.1156 39.5908 37.3382 40.7182 35.1519C42 32.6665 42 29.4129 42 22.9058V18.5902C42 12.083 42 8.82942 40.7182 6.34401C39.5908 4.15778 37.7917 2.38032 35.5789 1.26638C33.0633 0 29.7702 0 23.184 0H18.816C12.2298 0 8.93667 0 6.42107 1.26638C4.20829 2.38032 2.40923 4.15778 1.28176 6.34401Z" fill="#2AA64C"/>
</svg>
